<svg xmlns="http://www.w3.org/2000/svg" width="131" height="30" viewBox="0 0 131 30" fill="none"><path d="M32.098 7.25H35.098V21.7H32.098V7.25Z" fill="#131416"></path><path d="M36.778 16.75C36.778 15.7104 37.0867 14.6942 37.6649 13.8302C38.2431 12.9662 39.0648 12.2933 40.0259 11.8969C40.987 11.5004 42.0441 11.3982 43.0633 11.6032C44.0825 11.8082 45.0179 12.3112 45.7509 13.0485C46.4839 13.7857 46.9816 14.724 47.1808 15.7443C47.3799 16.7647 47.2717 17.8212 46.8697 18.78C46.4677 19.7388 45.7902 20.5566 44.9229 21.1299C44.0556 21.7031 43.0376 22.006 41.998 22C41.3085 22.0054 40.6248 21.8731 39.9871 21.6108C39.3494 21.3485 38.7704 20.9615 38.2842 20.4725C37.798 19.9835 37.4144 19.4024 37.1557 18.7632C36.8971 18.124 36.7687 17.4395 36.778 16.75ZM44.298 16.75C44.2862 16.3018 44.1425 15.8671 43.8849 15.5001C43.6273 15.1331 43.2673 14.8503 42.8497 14.6869C42.4322 14.5235 41.9758 14.4868 41.5376 14.5814C41.0993 14.676 40.6987 14.8978 40.3858 15.2189C40.0729 15.54 39.8616 15.9463 39.7784 16.3868C39.6952 16.8274 39.7437 17.2827 39.9179 17.6959C40.0921 18.109 40.3842 18.4616 40.7578 18.7096C41.1313 18.9575 41.5696 19.0899 42.018 19.09C42.3233 19.096 42.6265 19.0389 42.9087 18.9224C43.1909 18.8058 43.446 18.6323 43.6581 18.4127C43.8702 18.1931 44.0347 17.9321 44.1414 17.646C44.2481 17.3599 44.2946 17.0549 44.278 16.75H44.298Z" fill="#131416"></path><path d="M59.088 11.8V21.21C59.088 24.53 56.488 25.94 53.858 25.94C52.9304 26.0161 51.9999 25.8318 51.1713 25.4078C50.3427 24.9838 49.6489 24.3369 49.168 23.54L51.698 22.08C51.903 22.4933 52.2292 22.8344 52.6329 23.0577C53.0367 23.281 53.4989 23.376 53.958 23.33C54.2505 23.366 54.5473 23.337 54.8272 23.2449C55.1072 23.1529 55.3633 23.0001 55.5773 22.7976C55.7914 22.595 55.958 22.3477 56.0653 22.0732C56.1726 21.7988 56.2179 21.504 56.198 21.21V20.3C55.8489 20.7233 55.4059 21.0593 54.9043 21.2815C54.4026 21.5037 53.8561 21.6059 53.308 21.58C51.9819 21.58 50.7102 21.0532 49.7725 20.1155C48.8348 19.1778 48.308 17.9061 48.308 16.58C48.308 15.2539 48.8348 13.9821 49.7725 13.0445C50.7102 12.1068 51.9819 11.58 53.308 11.58C53.8561 11.5541 54.4026 11.6563 54.9043 11.8785C55.4059 12.1006 55.8489 12.4367 56.198 12.86V11.86L59.088 11.8ZM56.198 16.55C56.218 16.0716 56.0943 15.5981 55.843 15.1905C55.5918 14.7829 55.2243 14.4598 54.7879 14.2627C54.3515 14.0656 53.8661 14.0036 53.3941 14.0846C52.9222 14.1656 52.4852 14.3859 52.1395 14.7172C51.7938 15.0485 51.5551 15.4757 51.4541 15.9438C51.3531 16.4118 51.3944 16.8994 51.5728 17.3438C51.7511 17.7882 52.0583 18.1691 52.4548 18.4375C52.8514 18.7059 53.3192 18.8496 53.798 18.85C54.1105 18.8725 54.4242 18.8292 54.7189 18.723C55.0136 18.6167 55.2827 18.4498 55.5089 18.233C55.735 18.0163 55.9132 17.7545 56.0319 17.4646C56.1506 17.1747 56.2072 16.8631 56.198 16.55Z" fill="#131416"></path><path d="M60.778 16.75C60.778 15.7112 61.0862 14.6958 61.6635 13.8322C62.2408 12.9686 63.0613 12.2957 64.0212 11.8987C64.9811 11.5016 66.0372 11.3982 67.0559 11.6016C68.0746 11.805 69.01 12.306 69.7438 13.0412C70.4777 13.7765 70.9769 14.7129 71.1783 15.7319C71.3798 16.751 71.2744 17.8069 70.8755 18.766C70.4766 19.7252 69.8021 20.5444 68.9375 21.1201C68.0728 21.6957 67.0568 22.002 66.018 22C65.3272 22.0067 64.6419 21.8754 64.0025 21.6138C63.3631 21.3522 62.7823 20.9656 62.2943 20.4766C61.8062 19.9876 61.4207 19.4061 61.1603 18.7662C60.9 18.1263 60.77 17.4408 60.778 16.75ZM68.298 16.75C68.2862 16.3014 68.1422 15.8662 67.8842 15.499C67.6262 15.1319 67.2655 14.849 66.8474 14.6859C66.4293 14.5228 65.9724 14.4867 65.5339 14.5822C65.0954 14.6776 64.6948 14.9004 64.3823 15.2225C64.0698 15.5446 63.8593 15.9518 63.7773 16.393C63.6952 16.8342 63.7451 17.2898 63.9208 17.7027C64.0965 18.1157 64.3902 18.4676 64.7651 18.7144C65.1399 18.9611 65.5792 19.0918 66.028 19.09C66.3333 19.0959 66.6365 19.0389 66.9187 18.9223C67.2009 18.8058 67.456 18.6323 67.6681 18.4127C67.8802 18.193 68.0447 17.932 68.1514 17.646C68.2581 17.3599 68.3046 17.0549 68.288 16.75H68.298Z" fill="#131416"></path><path d="M72.648 9.15C72.648 8.79795 72.7524 8.4538 72.948 8.16108C73.1436 7.86836 73.4216 7.64021 73.7468 7.50549C74.0721 7.37077 74.43 7.33552 74.7753 7.4042C75.1206 7.47288 75.4377 7.64241 75.6867 7.89135C75.9356 8.14028 76.1051 8.45745 76.1738 8.80273C76.2425 9.14802 76.2072 9.50592 76.0725 9.83117C75.9378 10.1564 75.7096 10.4344 75.4169 10.63C75.1242 10.8256 74.7801 10.93 74.428 10.93C73.9575 10.9248 73.5078 10.7356 73.1751 10.4029C72.8424 10.0702 72.6532 9.62047 72.648 9.15ZM72.938 11.8H75.938V21.7H72.938V11.8Z" fill="#131416"></path><path d="M88.778 16.75C88.8116 17.4084 88.7147 18.0669 88.4929 18.6877C88.271 19.3085 87.9285 19.8793 87.4852 20.3673C87.0419 20.8552 86.5064 21.2507 85.9097 21.5309C85.3129 21.8111 84.6666 21.9705 84.008 22C83.4491 22.0372 82.8891 21.9476 82.3696 21.7381C81.8502 21.5286 81.3847 21.2045 81.008 20.79V25.68H78.008V11.8H81.008V12.73C81.3852 12.3167 81.851 11.994 82.3705 11.7862C82.89 11.5784 83.4499 11.4908 84.008 11.53C84.664 11.5595 85.3077 11.718 85.9024 11.9963C86.4971 12.2746 87.0312 12.6673 87.4741 13.1521C87.9171 13.6368 88.2602 14.204 88.4839 14.8213C88.7076 15.4387 88.8076 16.094 88.778 16.75ZM85.778 16.75C85.7662 16.2855 85.6176 15.8349 85.3507 15.4546C85.0839 15.0742 84.7107 14.7811 84.278 14.612C83.8453 14.4428 83.3723 14.4051 82.9183 14.5037C82.4642 14.6022 82.0494 14.8326 81.7257 15.1659C81.402 15.4992 81.1839 15.9206 81.0988 16.3773C81.0136 16.8341 81.0651 17.3058 81.2469 17.7333C81.4287 18.1609 81.7326 18.5253 82.1206 18.7809C82.5086 19.0364 82.9634 19.1718 83.428 19.17C83.7463 19.1835 84.0637 19.1296 84.3597 19.0118C84.6556 18.894 84.9233 18.7149 85.1452 18.4864C85.3671 18.2579 85.5382 17.9851 85.6472 17.6859C85.7563 17.3866 85.8009 17.0677 85.778 16.75Z" fill="#131416"></path><path d="M97.908 18.73C97.908 21.01 95.908 21.98 93.788 21.98C92.9233 22.0578 92.0552 21.8745 91.2958 21.4538C90.5364 21.0331 89.9206 20.3943 89.528 19.62L92.108 18.16C92.2102 18.5168 92.4319 18.8277 92.7358 19.0407C93.0398 19.2537 93.4077 19.3558 93.778 19.33C94.488 19.33 94.848 19.11 94.848 18.71C94.848 17.62 89.978 18.2 89.978 14.77C89.978 12.61 91.798 11.53 93.858 11.53C94.6411 11.4949 95.419 11.6726 96.1092 12.0441C96.7994 12.4156 97.3761 12.9671 97.778 13.64L95.198 15C95.084 14.742 94.8978 14.5225 94.6618 14.3682C94.4257 14.2138 94.15 14.131 93.868 14.13C93.348 14.13 93.038 14.33 93.038 14.68C93.038 15.82 97.908 15.07 97.908 18.73Z" fill="#131416"></path><path d="M108.778 11.8V21.7001H105.778V20.7701C105.437 21.1817 105.004 21.5075 104.515 21.7212C104.025 21.9348 103.492 22.0303 102.958 22C100.958 22 99.248 20.5701 99.248 17.9001V11.8H102.248V17.4501C102.224 17.6863 102.252 17.9248 102.33 18.1491C102.408 18.3735 102.533 18.5783 102.697 18.7494C102.862 18.9206 103.062 19.054 103.283 19.1404C103.504 19.2268 103.741 19.2643 103.978 19.25C105.058 19.25 105.818 18.61 105.818 17.25V11.8H108.778Z" fill="#131416"></path><path d="M125.778 15.62V21.7H122.778V15.88C122.778 14.88 122.308 14.26 121.358 14.26C120.408 14.26 119.808 14.95 119.808 16.12V21.7H116.808V15.88C116.808 14.88 116.338 14.26 115.388 14.26C114.438 14.26 113.838 14.95 113.838 16.12V21.7H110.838V11.8H113.838V12.71C114.149 12.3079 114.554 11.9895 115.019 11.7835C115.483 11.5775 115.992 11.4904 116.498 11.53C117.005 11.5035 117.511 11.6094 117.965 11.8373C118.419 12.0652 118.806 12.4073 119.088 12.83C119.418 12.3884 119.854 12.0376 120.356 11.8102C120.857 11.5829 121.409 11.4865 121.958 11.53C124.298 11.53 125.778 13.15 125.778 15.62Z" fill="#131416"></path><path d="M14.228 4.65002V0.400024H0.828003V29.6H14.228V25.35C11.483 25.35 8.85045 24.2596 6.90945 22.3186C4.96845 20.3776 3.878 17.745 3.878 15C3.878 12.255 4.96845 9.62247 6.90945 7.68147C8.85045 5.74047 11.483 4.65002 14.228 4.65002Z" fill="#131416"></path><path d="M14.228 4.65002V25.35C16.973 25.35 19.6056 24.2596 21.5466 22.3186C23.4876 20.3776 24.578 17.745 24.578 15C24.578 12.255 23.4876 9.62247 21.5466 7.68147C19.6056 5.74047 16.973 4.65002 14.228 4.65002Z" fill="#131416"></path><path d="M128.298 11.74C129.513 11.74 130.498 10.755 130.498 9.53997C130.498 8.32494 129.513 7.33997 128.298 7.33997C127.083 7.33997 126.098 8.32494 126.098 9.53997C126.098 10.755 127.083 11.74 128.298 11.74Z" fill="#131416"></path></svg>