<svg xmlns="http://www.w3.org/2000/svg" width="119" height="28" viewBox="0 0 119 28" fill="none"><path d="M34.428 8.06994H37.428V20.1999H34.428V8.06994ZM38.618 15.6199C38.618 12.6199 40.458 10.8299 43.298 10.8299C46.138 10.8299 47.978 12.6199 47.978 15.6199C47.978 18.6199 46.178 20.4199 43.298 20.4199C40.418 20.4199 38.618 18.6699 38.618 15.6199ZM44.968 15.6199C44.968 13.9699 44.318 12.9999 43.298 12.9999C42.278 12.9999 41.638 13.9999 41.638 15.6199C41.638 17.2399 42.268 18.2199 43.298 18.2199C44.328 18.2199 44.968 17.2999 44.968 15.6299V15.6199ZM49.108 20.7899H51.988C52.125 21.0944 52.3568 21.3465 52.6487 21.5087C52.9406 21.6709 53.277 21.7344 53.608 21.6899C54.748 21.6899 55.348 21.0699 55.348 20.1699V18.4899H55.288C55.049 19.0048 54.6611 19.4363 54.1745 19.7286C53.6879 20.0209 53.1248 20.1607 52.558 20.1299C50.368 20.1299 48.918 18.4599 48.918 15.5899C48.918 12.7199 50.298 10.9099 52.598 10.9099C53.1826 10.887 53.7602 11.0433 54.2535 11.3579C54.7468 11.6724 55.1322 12.1302 55.358 12.6699V10.9999H58.358V20.0999C58.358 22.2899 56.428 23.6499 53.578 23.6499C50.928 23.6499 49.278 22.4599 49.108 20.7999V20.7899ZM55.358 15.6099C55.358 14.1499 54.688 13.2299 53.628 13.2299C52.568 13.2299 51.918 14.1399 51.918 15.6099C51.918 17.0799 52.558 17.9099 53.628 17.9099C54.698 17.9099 55.358 17.0999 55.358 15.6199V15.6099ZM59.488 15.6099C59.488 12.6099 61.328 10.8199 64.168 10.8199C67.008 10.8199 68.858 12.6099 68.858 15.6099C68.858 18.6099 67.058 20.4099 64.168 20.4099C61.278 20.4099 59.488 18.6699 59.488 15.6199V15.6099ZM65.838 15.6099C65.838 13.9599 65.188 12.9899 64.168 12.9899C63.148 12.9899 62.558 13.9999 62.558 15.6299C62.558 17.2599 63.188 18.2299 64.208 18.2299C65.228 18.2299 65.838 17.2999 65.838 15.6299V15.6099ZM69.998 8.81994C69.9901 8.51705 70.0724 8.21864 70.2343 7.96254C70.3962 7.70645 70.6306 7.5042 70.9076 7.38144C71.1846 7.25868 71.4918 7.22094 71.7903 7.27299C72.0888 7.32505 72.3651 7.46455 72.5842 7.67383C72.8033 7.88311 72.9554 8.15274 73.0211 8.44853C73.0868 8.74431 73.0631 9.05295 72.9532 9.3353C72.8433 9.61766 72.652 9.86101 72.4036 10.0345C72.1552 10.208 71.8609 10.3039 71.558 10.3099C71.3572 10.3237 71.1557 10.2959 70.9661 10.2281C70.7766 10.1603 70.6031 10.054 70.4566 9.91594C70.3102 9.7779 70.1938 9.61105 70.1148 9.42588C70.0359 9.24071 69.9961 9.04122 69.998 8.83994V8.81994ZM69.998 11.0199H72.998V20.1999H69.998V11.0199ZM83.888 15.6099C83.888 18.6099 82.558 20.3199 80.278 20.3199C79.6933 20.3575 79.1113 20.2146 78.6105 19.9105C78.1097 19.6065 77.7144 19.156 77.478 18.6199H77.418V23.1399H74.418V10.9999H77.418V12.6399H77.478C77.7034 12.0951 78.0912 11.6328 78.5886 11.3161C79.086 10.9994 79.6689 10.8436 80.258 10.8699C82.558 10.9099 83.928 12.6299 83.928 15.6299L83.888 15.6099ZM80.888 15.6099C80.888 14.1499 80.218 13.2199 79.168 13.2199C78.118 13.2199 77.448 14.1599 77.438 15.6099C77.428 17.0599 78.118 17.9899 79.168 17.9899C80.218 17.9899 80.888 17.0799 80.888 15.6299V15.6099ZM89.038 10.8099C91.528 10.8099 93.038 11.9899 93.108 13.8799H90.378C90.378 13.2299 89.838 12.8199 89.008 12.8199C88.178 12.8199 87.808 13.1399 87.808 13.6099C87.808 14.0799 88.138 14.2299 88.808 14.3699L90.728 14.7599C92.558 15.1499 93.338 15.8899 93.338 17.2799C93.338 19.1799 91.608 20.3999 89.058 20.3999C86.508 20.3999 84.838 19.1799 84.708 17.3099H87.598C87.688 17.9899 88.228 18.3899 89.108 18.3899C89.988 18.3899 90.388 18.0999 90.388 17.6199C90.388 17.1399 90.108 17.0399 89.388 16.8899L87.658 16.5199C85.868 16.1499 84.928 15.1999 84.928 13.7999C84.948 11.9999 86.558 10.8299 89.038 10.8299V10.8099ZM103.348 20.1799H100.458V18.4699H100.398C100.239 19.0441 99.8887 19.5466 99.4048 19.894C98.9209 20.2415 98.3328 20.4129 97.738 20.3799C97.2822 20.4058 96.8261 20.3336 96.4007 20.1681C95.9752 20.0027 95.5902 19.7478 95.2717 19.4207C94.9531 19.0937 94.7085 18.7021 94.5544 18.2724C94.4002 17.8427 94.34 17.3849 94.378 16.9299V10.9999H97.378V16.2399C97.378 17.3299 97.938 17.9099 98.868 17.9099C99.0861 17.9104 99.3017 17.8642 99.5005 17.7745C99.6993 17.6848 99.8766 17.5536 100.02 17.3898C100.164 17.226 100.272 17.0333 100.335 16.8246C100.398 16.6159 100.416 16.3961 100.388 16.1799V10.9999H103.388L103.348 20.1799ZM104.798 10.9999H107.698V12.7699H107.758C107.917 12.2034 108.26 11.7057 108.732 11.3546C109.204 11.0036 109.78 10.8191 110.368 10.8299C110.967 10.782 111.561 10.9611 112.034 11.3317C112.506 11.7023 112.822 12.2372 112.918 12.8299H112.978C113.159 12.2309 113.535 11.7092 114.046 11.3471C114.556 10.985 115.173 10.8031 115.798 10.8299C116.206 10.8162 116.612 10.8885 116.99 11.0421C117.369 11.1957 117.71 11.4271 117.993 11.7214C118.276 12.0156 118.494 12.3661 118.633 12.75C118.771 13.134 118.828 13.5428 118.798 13.9499V20.1999H115.798V14.7499C115.798 13.7499 115.348 13.2899 114.508 13.2899C114.321 13.2884 114.135 13.327 113.964 13.4032C113.793 13.4794 113.64 13.5914 113.516 13.7316C113.392 13.8719 113.299 14.0372 113.244 14.2163C113.189 14.3954 113.174 14.5842 113.198 14.7699V20.1999H110.348V14.7099C110.348 13.7899 109.898 13.2899 109.078 13.2899C108.889 13.29 108.701 13.3302 108.529 13.408C108.356 13.4857 108.201 13.5992 108.076 13.7409C107.95 13.8827 107.856 14.0495 107.799 14.2303C107.743 14.4111 107.725 14.6019 107.748 14.7899V20.1999H104.748L104.798 10.9999Z" fill="#131416"></path><path d="M26.038 8.62001C25.5291 7.45637 24.8555 6.37195 24.038 5.40001C22.8295 3.92035 21.3213 2.71341 19.6127 1.85862C17.9041 1.00383 16.0338 0.520582 14.125 0.440674C12.2162 0.360766 10.3121 0.68601 8.53801 1.395C6.76395 2.104 5.16016 3.18067 3.83218 4.55414C2.5042 5.92762 1.48215 7.56676 0.833302 9.36369C0.18445 11.1606 -0.0764935 13.0746 0.0676479 14.9796C0.211789 16.8847 0.757747 18.7376 1.66959 20.4164C2.58143 22.0953 3.83847 23.562 5.35799 24.72C6.33299 25.4779 7.41034 26.094 8.55799 26.55C10.167 27.2094 11.8891 27.549 13.628 27.55C17.2174 27.5421 20.6572 26.1113 23.1934 23.5713C25.7297 21.0314 27.1554 17.5894 27.158 14C27.1606 12.1485 26.7793 10.3166 26.038 8.62001ZM13.618 3.19001C15.1795 3.18984 16.7222 3.53115 18.138 4.19001C17.7928 4.33918 17.4298 4.44337 17.058 4.50001C15.8346 4.67711 14.7013 5.24509 13.8272 6.11918C12.9531 6.99328 12.3851 8.12661 12.208 9.35001C12.1303 10.0361 11.8182 10.6744 11.3245 11.1572C10.8308 11.64 10.1857 11.9377 9.49799 12C8.27459 12.1771 7.14126 12.7451 6.26716 13.6192C5.39307 14.4933 4.82509 15.6266 4.64799 16.85C4.58803 17.5024 4.30968 18.1155 3.85799 18.59C3.07864 16.9433 2.72854 15.1261 2.84026 13.3077C2.95198 11.4893 3.52189 9.72871 4.49696 8.18976C5.47203 6.65081 6.82056 5.38353 8.41706 4.50586C10.0136 3.62819 11.8061 3.16865 13.628 3.17001L13.618 3.19001ZM5.34799 21C5.46799 20.89 5.58799 20.79 5.70799 20.67C6.59765 19.8075 7.16871 18.6689 7.32799 17.44C7.39257 16.7493 7.70099 16.1041 8.19799 15.62C8.67624 15.1222 9.31996 14.8163 10.008 14.76C11.2314 14.5829 12.3647 14.0149 13.2388 13.1408C14.1129 12.2667 14.6809 11.1334 14.858 9.91001C14.9013 9.18752 15.2113 8.50685 15.728 8.00001C16.218 7.51186 16.8679 7.21711 17.558 7.17001C18.6819 7.01537 19.7301 6.51573 20.558 5.74001C21.5006 6.52208 22.2993 7.46291 22.918 8.52001C22.88 8.57136 22.8364 8.61832 22.788 8.66001C22.3107 9.16221 21.6678 9.47477 20.978 9.54001C19.7533 9.71402 18.6183 10.281 17.7436 11.1557C16.869 12.0303 16.302 13.1654 16.128 14.39C16.0575 15.0784 15.7512 15.7213 15.261 16.2098C14.7707 16.6982 14.1267 17.0021 13.438 17.07C12.211 17.2458 11.0735 17.8126 10.1943 18.6863C9.31515 19.5601 8.74129 20.6941 8.55799 21.92C8.50417 22.4087 8.33633 22.878 8.06799 23.29C7.04199 22.6808 6.12308 21.9072 5.34799 21ZM13.618 24.86C12.6033 24.8611 11.5934 24.7197 10.618 24.44C10.9517 23.818 11.1686 23.1402 11.258 22.44C11.3281 21.7531 11.6329 21.1114 12.1212 20.6232C12.6094 20.135 13.2511 19.8301 13.938 19.76C15.1632 19.5849 16.2988 19.0178 17.1749 18.1435C18.0509 17.2693 18.6204 16.1349 18.798 14.91C18.8681 14.2231 19.173 13.5814 19.6612 13.0932C20.1494 12.605 20.7911 12.3001 21.478 12.23C22.4 12.1101 23.2788 11.7668 24.038 11.23C24.4595 12.8279 24.5095 14.5012 24.184 16.1214C23.8584 17.7416 23.1661 19.2657 22.1601 20.5768C21.1541 21.8879 19.8612 22.9511 18.3804 23.6849C16.8997 24.4187 15.2706 24.8036 13.618 24.81V24.86Z" fill="#131416"></path></svg>