<svg xmlns="http://www.w3.org/2000/svg" width="118" height="24" viewBox="0 0 118 24" fill="none"><path d="M37.88 19.3901C37.2852 19.4223 36.6969 19.2532 36.21 18.9101C36.0065 18.7592 35.8428 18.5612 35.7331 18.3329C35.6233 18.1047 35.5708 17.8532 35.58 17.6001V8.33006C35.5751 8.29081 35.5793 8.25097 35.5921 8.21358C35.605 8.17618 35.6262 8.1422 35.6542 8.11424C35.6821 8.08627 35.7161 8.06506 35.7535 8.0522C35.7909 8.03935 35.8307 8.0352 35.87 8.04006H37.55C37.74 8.04006 37.83 8.14006 37.83 8.33006V16.8801C37.83 17.2601 38 17.4501 38.35 17.4501C38.4983 17.4562 38.6468 17.4393 38.79 17.4001C38.99 17.4001 39.1 17.4601 39.11 17.6401L39.26 18.8901C39.2672 18.9265 39.2665 18.9641 39.258 19.0002C39.2494 19.0364 39.2332 19.0703 39.2105 19.0997C39.1878 19.129 39.159 19.1532 39.1261 19.1705C39.0933 19.1878 39.0571 19.1979 39.02 19.2001C38.652 19.3216 38.2675 19.3857 37.88 19.3901V19.3901Z" fill="#131416"></path><path d="M47.33 18.32C46.4858 19.0175 45.425 19.3991 44.33 19.3991C43.2349 19.3991 42.1741 19.0175 41.33 18.32C40.588 17.571 40.1718 16.5593 40.1718 15.505C40.1718 14.4507 40.588 13.4391 41.33 12.69C42.1758 11.9962 43.236 11.6169 44.33 11.6169C45.424 11.6169 46.4842 11.9962 47.33 12.69C48.0548 13.446 48.4595 14.4528 48.4595 15.5C48.4595 16.5473 48.0548 17.5541 47.33 18.31V18.32ZM42.91 17C43.3017 17.3549 43.8114 17.5514 44.34 17.5514C44.8685 17.5514 45.3782 17.3549 45.77 17C46.1245 16.5924 46.3198 16.0703 46.3198 15.53C46.3198 14.9898 46.1245 14.4677 45.77 14.06C45.3782 13.7052 44.8685 13.5087 44.34 13.5087C43.8114 13.5087 43.3017 13.7052 42.91 14.06C42.5554 14.4677 42.3601 14.9898 42.3601 15.53C42.3601 16.0703 42.5554 16.5924 42.91 17Z" fill="#131416"></path><path d="M57.71 11.8699C57.9 11.8699 57.99 11.9699 57.99 12.1599V19.3299C58.0075 19.8139 57.9169 20.2956 57.7249 20.7402C57.5329 21.1847 57.2443 21.5809 56.88 21.8999C56.0714 22.5894 55.0316 22.9467 53.97 22.8999C53.0111 22.9336 52.0651 22.6718 51.26 22.1499C50.9162 21.9242 50.6225 21.6301 50.3971 21.2861C50.1718 20.942 50.0196 20.5553 49.95 20.1499C49.95 19.9499 49.95 19.8599 50.22 19.8599H51.9C51.9713 19.8624 52.0404 19.8854 52.099 19.9262C52.1575 19.967 52.203 20.0239 52.23 20.0899C52.3389 20.3937 52.5561 20.6465 52.84 20.7999C53.1859 20.9784 53.5708 21.0678 53.96 21.0599C54.1948 21.0728 54.4298 21.0387 54.6513 20.9598C54.8728 20.8808 55.0763 20.7585 55.25 20.5999C55.4086 20.4341 55.5321 20.2378 55.6129 20.023C55.6936 19.8082 55.7301 19.5792 55.72 19.3499V18.7199C55.1185 19.1624 54.3864 19.3911 53.64 19.3699C53.1176 19.3889 52.5967 19.3022 52.1087 19.1149C51.6207 18.9276 51.1755 18.6436 50.8 18.2799C50.079 17.5341 49.676 16.5373 49.676 15.4999C49.676 14.4626 50.079 13.4658 50.8 12.7199C51.1773 12.3595 51.623 12.0783 52.1108 11.8928C52.5985 11.7073 53.1185 11.6213 53.64 11.6399C54.408 11.6197 55.1597 11.8632 55.77 12.3299V12.1699C55.7654 12.1316 55.7694 12.0927 55.7817 12.0562C55.794 12.0196 55.8143 11.9862 55.8411 11.9584C55.8679 11.9307 55.9006 11.9092 55.9367 11.8956C55.9728 11.8821 56.0115 11.8767 56.05 11.8799L57.71 11.8699ZM53.83 17.5899C54.0876 17.5979 54.3438 17.5492 54.5806 17.4473C54.8173 17.3453 55.0288 17.1926 55.2 16.9999C55.5324 16.5706 55.7128 16.043 55.7128 15.4999C55.7128 14.9569 55.5324 14.4293 55.2 13.9999C55.0294 13.8099 54.8192 13.6595 54.5842 13.5593C54.3493 13.4591 54.0953 13.4115 53.84 13.4199C53.5794 13.4117 53.3201 13.4603 53.0801 13.5621C52.8401 13.664 52.6251 13.8168 52.45 14.0099C52.0817 14.4206 51.888 14.9587 51.91 15.5099C51.8919 16.0557 52.0813 16.5881 52.44 16.9999C52.6155 17.1926 52.8306 17.345 53.0705 17.4468C53.3104 17.5486 53.5695 17.5975 53.83 17.5899V17.5899Z" fill="#131416"></path><path d="M66.62 18.32C65.7742 19.0139 64.714 19.3932 63.62 19.3932C62.526 19.3932 61.4658 19.0139 60.62 18.32C59.8945 17.5625 59.4895 16.554 59.4895 15.5051C59.4895 14.4561 59.8945 13.4476 60.62 12.69C61.4666 11.998 62.5265 11.6199 63.62 11.6199C64.7135 11.6199 65.7734 11.998 66.62 12.69C67.3449 13.446 67.7496 14.4528 67.7496 15.5C67.7496 16.5473 67.3449 17.5541 66.62 18.3101V18.32ZM62.19 17C62.3817 17.1824 62.6077 17.3249 62.8549 17.4194C63.1021 17.5138 63.3655 17.5582 63.63 17.55C63.8928 17.5569 64.1544 17.5118 64.3998 17.4174C64.6451 17.323 64.8695 17.1812 65.06 17C65.4088 16.5897 65.6003 16.0686 65.6003 15.53C65.6003 14.9915 65.4088 14.4704 65.06 14.0601C64.8695 13.8789 64.6451 13.7371 64.3998 13.6427C64.1544 13.5483 63.8928 13.5032 63.63 13.51C63.3655 13.5019 63.1021 13.5463 62.8549 13.6407C62.6077 13.7352 62.3817 13.8777 62.19 14.0601C61.8412 14.4704 61.6497 14.9915 61.6497 15.53C61.6497 16.0686 61.8412 16.5897 62.19 17V17Z" fill="#131416"></path><path d="M71.36 10.17C71.0956 10.4014 70.7563 10.5289 70.405 10.5289C70.0537 10.5289 69.7143 10.4014 69.45 10.17C69.3301 10.0569 69.2346 9.92051 69.1694 9.76919C69.1041 9.61787 69.0704 9.45481 69.0704 9.29002C69.0704 9.12522 69.1041 8.96216 69.1694 8.81084C69.2346 8.65952 69.3301 8.52312 69.45 8.41002C69.717 8.18443 70.0554 8.06067 70.405 8.06067C70.7546 8.06067 71.0929 8.18443 71.36 8.41002C71.4798 8.52312 71.5753 8.65952 71.6405 8.81084C71.7058 8.96216 71.7395 9.12522 71.7395 9.29002C71.7395 9.45481 71.7058 9.61787 71.6405 9.76919C71.5753 9.92051 71.4798 10.0569 71.36 10.17V10.17ZM71.57 19.39C70.9755 19.4192 70.3882 19.2504 69.9 18.91C69.6996 18.757 69.5388 18.5582 69.4309 18.3303C69.323 18.1024 69.2713 17.852 69.28 17.6V12.16C69.2751 12.1208 69.2792 12.0809 69.2921 12.0435C69.305 12.0061 69.3262 11.9722 69.3541 11.9442C69.3821 11.9162 69.4161 11.895 69.4535 11.8822C69.4909 11.8693 69.5307 11.8652 69.57 11.87H71.25C71.44 11.87 71.53 11.97 71.53 12.16V16.88C71.53 17.26 71.7 17.45 72.04 17.45C72.1916 17.4555 72.3432 17.4386 72.49 17.4C72.69 17.4 72.8 17.46 72.81 17.64L72.96 18.89C72.9672 18.9265 72.9665 18.964 72.9579 19.0002C72.9494 19.0363 72.9332 19.0702 72.9105 19.0996C72.8877 19.129 72.859 19.1532 72.8261 19.1705C72.7932 19.1878 72.757 19.1979 72.72 19.2C72.3487 19.3223 71.9608 19.3864 71.57 19.39V19.39Z" fill="#131416"></path><path d="M79.14 11.63C79.6647 11.6093 80.1883 11.6942 80.6796 11.8797C81.1709 12.0652 81.6199 12.3476 82 12.71C82.7071 13.4689 83.1003 14.4677 83.1003 15.505C83.1003 16.5423 82.7071 17.5411 82 18.3C81.6218 18.6656 81.1733 18.9508 80.6817 19.1381C80.1901 19.3255 79.6656 19.4112 79.14 19.39C78.3911 19.4067 77.6573 19.1784 77.05 18.74V22.35C77.05 22.54 76.95 22.63 76.76 22.63H75.08C75.0417 22.6372 75.0022 22.6349 74.9649 22.6233C74.9277 22.6118 74.8938 22.5914 74.8662 22.5638C74.8386 22.5362 74.8182 22.5023 74.8067 22.4651C74.7951 22.4278 74.7928 22.3883 74.8 22.35V14.15C74.8118 14.0698 74.8046 13.988 74.7791 13.911C74.7537 13.8341 74.7105 13.7641 74.6532 13.7068C74.5959 13.6495 74.526 13.6064 74.449 13.5809C74.372 13.5554 74.2902 13.5482 74.21 13.56H73.88C73.66 13.56 73.55 13.48 73.55 13.32V12.14C73.5448 12.067 73.5648 11.9944 73.6067 11.9344C73.6485 11.8743 73.7097 11.8304 73.78 11.81C74.1259 11.6843 74.492 11.6233 74.86 11.63C75.227 11.5975 75.5953 11.6753 75.9178 11.8535C76.2402 12.0317 76.5022 12.302 76.67 12.63C76.9921 12.3042 77.3773 12.0474 77.802 11.8755C78.2266 11.7036 78.6819 11.62 79.14 11.63ZM77.58 17C77.7583 17.1864 77.9725 17.3347 78.2097 17.436C78.4468 17.5373 78.7021 17.5895 78.96 17.5895C79.2179 17.5895 79.4731 17.5373 79.7103 17.436C79.9475 17.3347 80.1617 17.1864 80.34 17C80.7156 16.5811 80.9129 16.0322 80.89 15.47C80.9162 14.9073 80.7184 14.3572 80.34 13.94C80.1617 13.7537 79.9475 13.6054 79.7103 13.504C79.4731 13.4027 79.2179 13.3505 78.96 13.3505C78.7021 13.3505 78.4468 13.4027 78.2097 13.504C77.9725 13.6054 77.7583 13.7537 77.58 13.94C77.2161 14.3646 77.0267 14.9113 77.05 15.47C77.0297 16.0283 77.2187 16.5739 77.58 17Z" fill="#131416"></path><path d="M87.82 19.39C86.9223 19.4269 86.0321 19.2122 85.25 18.77C84.9361 18.581 84.6689 18.3237 84.4681 18.0173C84.2673 17.7109 84.138 17.3632 84.09 17C84.09 16.8 84.16 16.7 84.38 16.7H85.85C85.9199 16.7027 85.9877 16.7247 86.0459 16.7635C86.1042 16.8024 86.1506 16.8565 86.18 16.92C86.39 17.46 86.94 17.73 87.82 17.73C88.1269 17.744 88.4326 17.6822 88.71 17.55C88.8057 17.5068 88.8879 17.4384 88.9478 17.3521C89.0077 17.2658 89.043 17.1648 89.05 17.06C89.05 16.8 88.89 16.62 88.57 16.5C88.1904 16.3737 87.798 16.2898 87.4 16.25C86.9284 16.1966 86.4608 16.1131 86 16C85.5518 15.8986 85.1443 15.6652 84.83 15.33C84.6449 15.1022 84.5086 14.8387 84.4297 14.556C84.3508 14.2733 84.3308 13.9773 84.3712 13.6866C84.4115 13.3958 84.5112 13.1164 84.6641 12.8659C84.817 12.6153 85.0198 12.3989 85.26 12.23C85.9807 11.7709 86.8264 11.5472 87.68 11.59C88.5063 11.5621 89.324 11.7665 90.04 12.18C90.3285 12.3435 90.577 12.5692 90.7673 12.8408C90.9576 13.1124 91.0849 13.423 91.14 13.75C91.14 13.95 91.05 14.05 90.87 14.05H89.39C89.3277 14.0537 89.2657 14.0385 89.2122 14.0064C89.1586 13.9743 89.116 13.9267 89.09 13.87C88.9911 13.6332 88.8049 13.4434 88.57 13.34C88.305 13.2014 88.009 13.1325 87.71 13.14C87.4168 13.1241 87.1244 13.1826 86.86 13.31C86.7668 13.346 86.6865 13.409 86.6295 13.491C86.5724 13.573 86.5413 13.6701 86.54 13.77C86.5464 13.9068 86.5964 14.0379 86.6828 14.1441C86.7692 14.2502 86.8874 14.3259 87.02 14.36C87.404 14.5047 87.8032 14.6054 88.21 14.66C88.6777 14.7216 89.1417 14.8083 89.6 14.92C90.0481 15.0215 90.4557 15.2548 90.77 15.59C90.9381 15.7747 91.068 15.9908 91.1521 16.226C91.2362 16.4611 91.2729 16.7106 91.26 16.96C91.2686 17.3057 91.1874 17.6477 91.0245 17.9527C90.8615 18.2576 90.6222 18.5151 90.33 18.7C89.5828 19.1797 88.7073 19.4203 87.82 19.39V19.39Z" fill="#131416"></path><path d="M101.83 18.89C101.836 18.9255 101.834 18.9618 101.826 18.9967C101.817 19.0316 101.802 19.0645 101.78 19.0934C101.759 19.1222 101.732 19.1466 101.701 19.1649C101.67 19.1832 101.636 19.1951 101.6 19.2C101.235 19.3192 100.854 19.3832 100.47 19.39C100.09 19.4294 99.7062 19.3699 99.3558 19.2175C99.0055 19.0651 98.7004 18.8249 98.47 18.52C97.7636 19.1273 96.8503 19.4389 95.92 19.39C95.4881 19.4099 95.0568 19.3392 94.6538 19.1825C94.2508 19.0258 93.885 18.7865 93.58 18.48C93.2771 18.1589 93.0422 17.7799 92.8893 17.3658C92.7363 16.9516 92.6686 16.5109 92.69 16.07V12.16C92.69 11.97 92.78 11.87 92.97 11.87H94.65C94.84 11.87 94.93 11.97 94.93 12.16V15.77C94.9118 16.2198 95.0655 16.6596 95.36 17C95.507 17.1559 95.6857 17.2786 95.8841 17.3596C96.0825 17.4407 96.2959 17.4784 96.51 17.47C96.7292 17.4796 96.9481 17.4456 97.1541 17.3701C97.3601 17.2946 97.549 17.179 97.71 17.03C97.8624 16.873 97.981 16.6863 98.0584 16.4816C98.1358 16.277 98.1704 16.0586 98.16 15.84V12.16C98.16 11.97 98.25 11.87 98.44 11.87H100.14C100.33 11.87 100.42 11.97 100.42 12.16V16.87C100.42 17.26 100.59 17.45 100.92 17.45C101.075 17.456 101.23 17.4391 101.38 17.4C101.418 17.3894 101.458 17.3875 101.496 17.3944C101.535 17.4014 101.571 17.417 101.603 17.4401C101.635 17.4632 101.661 17.4931 101.68 17.5278C101.698 17.5624 101.708 17.6008 101.71 17.64L101.83 18.89Z" fill="#131416"></path><path d="M117.72 18.89C117.729 18.9258 117.73 18.9631 117.723 18.9993C117.715 19.0355 117.7 19.0697 117.678 19.0993C117.656 19.1289 117.628 19.1533 117.595 19.1707C117.563 19.1881 117.527 19.1981 117.49 19.2C117.118 19.3209 116.731 19.3849 116.34 19.39C115.745 19.4207 115.158 19.2517 114.67 18.91C114.459 18.7636 114.288 18.5675 114.171 18.339C114.054 18.1104 113.995 17.8566 114 17.6V15.25C114.021 14.8016 113.871 14.3619 113.58 14.02C113.44 13.8637 113.266 13.7405 113.073 13.6592C112.879 13.5779 112.67 13.5406 112.46 13.55C112.271 13.5429 112.083 13.5787 111.909 13.655C111.736 13.7312 111.583 13.8457 111.46 13.99C111.196 14.3251 111.061 14.7438 111.08 15.17V18.86C111.08 19.05 110.99 19.15 110.8 19.15H109.11C109.071 19.1549 109.031 19.1507 108.994 19.1379C108.956 19.125 108.922 19.1038 108.894 19.0758C108.866 19.0479 108.845 19.0139 108.832 18.9765C108.819 18.9391 108.815 18.8992 108.82 18.86V15.25C108.842 14.8065 108.703 14.3699 108.43 14.02C108.308 13.873 108.155 13.7547 107.982 13.6735C107.81 13.5922 107.621 13.5501 107.43 13.55C107.226 13.5418 107.023 13.5767 106.833 13.6525C106.643 13.7284 106.472 13.8434 106.33 13.99C106.044 14.3144 105.897 14.7381 105.92 15.17V18.86C105.925 18.8992 105.921 18.9391 105.908 18.9765C105.895 19.0139 105.874 19.0479 105.846 19.0758C105.818 19.1038 105.784 19.125 105.747 19.1379C105.709 19.1507 105.669 19.1549 105.63 19.15H104C103.81 19.15 103.72 19.05 103.72 18.86V14.15C103.732 14.0698 103.725 13.988 103.699 13.911C103.674 13.834 103.631 13.7641 103.573 13.7068C103.516 13.6495 103.446 13.6064 103.369 13.5809C103.292 13.5554 103.21 13.5482 103.13 13.56H102.8C102.58 13.56 102.47 13.48 102.47 13.32V12.14C102.465 12.067 102.485 11.9944 102.527 11.9343C102.569 11.8743 102.63 11.8304 102.7 11.81C103.046 11.6843 103.412 11.6232 103.78 11.63C104.133 11.5999 104.488 11.6703 104.803 11.8331C105.118 11.9959 105.38 12.2444 105.56 12.55C105.897 12.2302 106.297 11.9835 106.734 11.8252C107.171 11.6669 107.636 11.6005 108.1 11.63C108.551 11.608 109 11.6925 109.412 11.8767C109.824 12.0609 110.186 12.3395 110.47 12.69C110.801 12.3303 111.208 12.0486 111.661 11.8653C112.114 11.682 112.602 11.6016 113.09 11.63C113.527 11.6096 113.963 11.6799 114.37 11.8365C114.778 11.9932 115.149 12.2327 115.46 12.54C115.764 12.8605 115.999 13.2394 116.152 13.6536C116.305 14.0679 116.373 14.509 116.35 14.95V16.88C116.35 17.26 116.52 17.45 116.84 17.45C116.995 17.4572 117.15 17.4404 117.3 17.4C117.507 17.4 117.617 17.48 117.63 17.64L117.72 18.89Z" fill="#131416"></path><path d="M0.460049 10.57C1.19782 7.60469 2.90647 4.97144 5.31395 3.08954C7.72143 1.20764 10.6893 0.185303 13.745 0.185303C16.8008 0.185303 19.7687 1.20764 22.1761 3.08954C24.5836 4.97144 26.2923 7.60469 27.03 10.57H25.8301C23.8057 10.5402 21.8229 11.1452 20.16 12.3C20.0641 12.3695 19.9639 12.433 19.8601 12.49H19.7201C19.6162 12.433 19.516 12.3695 19.42 12.3C17.7424 11.1719 15.7667 10.5694 13.745 10.5694C11.7234 10.5694 9.74766 11.1719 8.07005 12.3C7.97408 12.3695 7.87389 12.433 7.77005 12.49H7.63005C7.52621 12.433 7.42602 12.3695 7.33005 12.3C5.66718 11.1452 3.68437 10.5402 1.66005 10.57H0.460049ZM23.67 16.84C24.2861 16.3603 25.0495 16.1093 25.8301 16.13H27.44V12.92H25.8301C24.4553 12.9034 23.1119 13.3313 22 14.14C21.3744 14.6013 20.6174 14.8502 19.84 14.8502C19.0627 14.8502 18.3057 14.6013 17.68 14.14C16.54 13.3464 15.1842 12.921 13.795 12.921C12.4059 12.921 11.0501 13.3464 9.91005 14.14C9.28435 14.6013 8.52741 14.8502 7.75005 14.8502C6.97269 14.8502 6.21575 14.6013 5.59005 14.14C4.46445 13.321 3.10184 12.8925 1.71005 12.92H0.0500488V16.13H1.66005C2.44056 16.1093 3.20404 16.3603 3.82005 16.84C4.95806 17.6342 6.31234 18.06 7.70005 18.06C9.08776 18.06 10.442 17.6342 11.5801 16.84C12.1968 16.3618 12.9598 16.111 13.7401 16.13C14.5208 16.1076 15.2848 16.3588 15.9001 16.84C17.0401 17.6337 18.3959 18.0591 19.785 18.0591C21.1742 18.0591 22.53 17.6337 23.67 16.84V16.84ZM23.67 22.58C24.2861 22.1003 25.0495 21.8493 25.8301 21.87H27.44V18.66H25.8301C24.4553 18.6434 23.1119 19.0713 22 19.88C21.3744 20.3413 20.6174 20.5902 19.84 20.5902C19.0627 20.5902 18.3057 20.3413 17.68 19.88C16.54 19.0864 15.1842 18.661 13.795 18.661C12.4059 18.661 11.0501 19.0864 9.91005 19.88C9.28435 20.3413 8.52741 20.5902 7.75005 20.5902C6.97269 20.5902 6.21575 20.3413 5.59005 19.88C4.46445 19.061 3.10184 18.6325 1.71005 18.66H0.0500488V21.87H1.66005C2.44056 21.8493 3.20404 22.1003 3.82005 22.58C4.95806 23.3742 6.31234 23.8 7.70005 23.8C9.08776 23.8 10.442 23.3742 11.5801 22.58C12.1968 22.1018 12.9598 21.851 13.7401 21.87C14.5208 21.8476 15.2848 22.0988 15.9001 22.58C17.0401 23.3737 18.3959 23.7991 19.785 23.7991C21.1742 23.7991 22.53 23.3737 23.67 22.58V22.58Z" fill="#131416"></path></svg>