<svg width="28" height="32" viewBox="0 0 28 32" fill="none" xmlns="http://www.w3.org/2000/svg">
<path d="M14 8V24L26 16L14 8Z" fill="#131416"/>
<path fill-rule="evenodd" clip-rule="evenodd" d="M25.7779 2.9419V29.0581C25.7779 29.6348 25.138 29.9865 24.6447 29.6808L3.57017 16.6227C3.10601 16.3351 3.10601 15.6649 3.57017 15.3773L24.6447 2.31922C25.138 2.01354 25.7779 2.36516 25.7779 2.9419ZM23.467 0.451157C25.4403 -0.771544 28 0.634916 28 2.9419V29.0581C28 31.3651 25.4403 32.7715 23.467 31.5488L2.39249 18.4907C0.535839 17.3403 0.535839 14.6597 2.39249 13.5093L23.467 0.451157Z" fill="#131416"/>
<path fill-rule="evenodd" clip-rule="evenodd" d="M2.22205 2.9419V29.0581C2.22205 29.6348 2.86197 29.9865 3.35529 29.6808L24.4298 16.6227C24.894 16.3351 24.894 15.6649 24.4298 15.3773L3.3553 2.31922C2.86196 2.01354 2.22205 2.36516 2.22205 2.9419ZM4.53298 0.451157C2.55966 -0.771544 0 0.634916 0 2.9419V29.0581C0 31.3651 2.55966 32.7715 4.53298 31.5488L25.6075 18.4907C27.4642 17.3403 27.4642 14.6597 25.6075 13.5093L4.53298 0.451157Z" fill="#131416"/>
</svg>
